<?xml version="1.0" standalone="no"?>
<!DOCTYPE svg PUBLIC "-//W3C//DTD SVG 20010904//EN"
 "http://www.w3.org/TR/2001/REC-SVG-20010904/DTD/svg10.dtd">
<svg version="1.0" xmlns="http://www.w3.org/2000/svg"
 width="704.000000pt" height="704.000000pt" viewBox="0 0 704.000000 704.000000"
 preserveAspectRatio="xMidYMid meet">
<metadata>
Created by potrace 1.14, written by Peter Selinger 2001-2017
</metadata>
<g transform="translate(0.000000,704.000000) scale(0.100000,-0.100000)"
fill="#000000" stroke="none">
<path d="M3487 6465 c-15 -25 -27 -50 -27 -55 0 -6 -4 -10 -10 -10 -5 0 -10
-5 -10 -10 0 -14 -92 -174 -102 -178 -4 -2 -8 -7 -8 -12 0 -4 -25 -52 -57
-106 -31 -55 -61 -109 -67 -121 -6 -13 -15 -23 -19 -23 -5 0 -6 -4 -3 -9 3 -5
-1 -14 -9 -21 -8 -7 -15 -19 -15 -26 0 -8 -3 -14 -7 -14 -5 0 -17 -19 -28 -43
-11 -23 -22 -44 -26 -47 -3 -3 -19 -30 -36 -60 -16 -30 -51 -90 -76 -133 -26
-43 -47 -80 -47 -82 0 -3 -62 -110 -90 -155 -5 -8 -30 -51 -55 -95 -53 -94
-78 -137 -151 -262 -30 -50 -54 -96 -54 -102 0 -6 -3 -11 -8 -11 -4 0 -18 -21
-32 -47 -13 -27 -39 -71 -57 -100 -18 -29 -33 -54 -33 -57 0 -2 -34 -62 -75
-131 -41 -70 -75 -131 -75 -135 0 -4 -7 -13 -15 -20 -8 -7 -13 -16 -10 -20 3
-5 1 -11 -5 -15 -6 -4 -22 -27 -35 -53 -14 -26 -34 -60 -44 -77 -59 -98 -241
-420 -241 -427 0 -4 -4 -8 -10 -8 -5 0 -10 -4 -10 -10 0 -5 -18 -39 -40 -75
-22 -36 -40 -68 -40 -70 0 -3 -11 -22 -23 -43 -13 -20 -35 -57 -49 -82 -14
-25 -67 -117 -118 -205 -151 -260 -200 -347 -200 -355 0 -5 -4 -10 -8 -12 -5
-1 -22 -28 -39 -58 -29 -52 -61 -108 -195 -340 -30 -52 -89 -154 -130 -225
-185 -320 -267 -463 -287 -495 -11 -19 -24 -42 -28 -50 -4 -8 -24 -43 -45 -78
-21 -34 -38 -64 -38 -67 0 -3 -18 -34 -40 -70 -22 -36 -40 -70 -40 -75 0 -6
-4 -10 -10 -10 -5 0 -10 -6 -10 -14 0 -8 -6 -21 -13 -28 -7 -7 -18 -24 -24
-38 -7 -14 -23 -43 -35 -65 -50 -88 -192 -332 -207 -355 -19 -31 -66 -114 -88
-157 -9 -18 -20 -33 -25 -33 -4 0 -8 -9 -8 -19 0 -11 -4 -21 -8 -23 -6 -2
-117 -190 -130 -220 -2 -5 1554 -8 3457 -8 1904 0 3461 2 3461 5 0 3 -27 50
-60 106 -33 55 -60 105 -60 110 0 5 -5 9 -12 9 -6 0 -9 3 -5 6 3 4 -7 26 -23
50 -17 23 -30 45 -30 49 0 3 -11 22 -23 43 -13 20 -35 57 -49 82 -48 86 -69
122 -159 276 -49 85 -102 176 -116 202 -14 26 -34 59 -44 74 -11 14 -19 33
-19 42 0 9 -5 16 -10 16 -6 0 -14 10 -19 23 -5 12 -43 80 -85 151 -42 70 -76
130 -76 132 0 2 -17 32 -38 66 -21 35 -41 70 -45 78 -4 8 -17 31 -28 50 -60
99 -199 341 -242 420 -16 30 -35 61 -41 69 -11 15 -31 48 -42 71 -4 8 -44 78
-89 155 -45 77 -93 160 -107 185 -32 57 -53 94 -118 205 -29 50 -64 110 -78
135 -13 25 -28 50 -32 55 -8 11 -46 79 -94 165 -16 30 -32 57 -35 60 -3 3 -11
14 -17 25 -49 89 -83 149 -116 204 -21 34 -38 65 -38 67 0 2 -18 33 -40 69
-22 36 -40 70 -40 75 0 6 -4 10 -10 10 -5 0 -10 4 -10 9 0 8 -72 137 -100 181
-6 8 -13 21 -17 29 -7 15 -265 463 -283 491 -14 23 -70 119 -98 170 -14 25
-78 135 -142 245 -64 111 -119 207 -123 215 -4 8 -21 38 -38 65 -16 28 -33 58
-36 68 -3 9 -9 17 -14 17 -5 0 -9 4 -9 10 0 5 -14 33 -31 62 -36 60 -51 87
-99 173 -19 33 -36 62 -39 65 -5 4 -18 27 -65 115 -6 11 -13 22 -16 25 -3 3
-12 19 -20 35 -8 17 -17 32 -20 35 -3 3 -12 19 -20 35 -8 17 -17 32 -20 35 -5
5 -15 22 -58 99 -13 25 -33 57 -42 71 -9 14 -19 30 -21 35 -9 24 -93 165 -99
165 -3 0 -17 -20 -33 -45z"/>
</g>
</svg>
